<svg version="1.0" xmlns="http://www.w3.org/2000/svg" viewBox="0 0 306 250" color-interpolation-filters="sRGB" style="margin:auto">
  <g fill="#091f3f" class="basesvg">
    <path d="M0 36.66q0-1.76.36-2.47.36-.71 1.3-.71.95 0 2.5 1.81 1.57 1.82 3.55 3.64 1.98 1.83 3.93 1.83 1.49 0 2.99-4.17 1.49-4.16 3.19-10.69 1.69-6.53 2.14-8.74 1.04-5.13 1.5-6.24-1.76.39-5.82.94-4.06.56-5.43.56-1.36 0-2.21-.85-.84-.85-.84-2.02 0-2.34 4.97-4.22 4.97-1.89 9.94-2.63 4.98-.75 6.86-.75 3.64 0 3.64 2.34 0 .97-2.34 8.13-2.34 7.15-2.86 9.35-3.51 14.89-5.26 19.24-2.74 6.83-7.02 7.94-1.05.26-2.08.26-4.62 0-8.81-4.46Q0 40.3 0 36.66Zm37.83 12.22q-1.49 0-3.57-2.5t-2.08-4.07q0-1.55 1.56-6.43 4.81-14.95 5.14-26.2-2.21-2.33-2.21-3.7 0-2.15 5.1-4.06Q46.87 0 51.49 0q7.8 0 12.31 3.64 4.52 3.64 4.52 9.29 0 7.22-7.05 13.07-7.06 5.85-17.78 8-3.06 10.98-4 12.93-.94 1.95-1.66 1.95Zm21.26-35.75q0-2.08-1.49-3.41-1.5-1.33-4.03-1.33-2.54 0-7.03 2.4 1.31 2.28 1.31 4.1 0 3.57-1.89 10.59 5.85-2.34 9.49-5.62 3.64-3.29 3.64-6.73Z" transform="matrix(2 0 0 2 101.68 75.79)" data-gra="path-name" class="tp-name" fill="url(#a)"/>
  </g>
  <defs>
    <linearGradient x1="0" y1="1" x2="0" y2="0" id="a">
      <stop offset="0%" stop-color="#6a12cb"/>
      <stop offset="100%" stop-color="#2575fc"/>
    </linearGradient>
  </defs>
</svg>
